<svg width="33" height="33" viewBox="0 0 33 33" fill="none" xmlns="http://www.w3.org/2000/svg">
<path d="M21.6 1C21.6 0.447715 21.1523 0 20.6 0H11.8C11.2477 0 10.8 0.447717 10.8 1V9.8C10.8 10.3523 10.3523 10.8 9.8 10.8H1C0.447715 10.8 0 11.2477 0 11.8V20.6C0 21.1523 0.447717 21.6 1 21.6H9.8C10.3523 21.6 10.8 22.0477 10.8 22.6V31.4C10.8 31.9523 11.2477 32.4 11.8 32.4H20.6C21.1523 32.4 21.6 31.9523 21.6 31.4V22.6C21.6 22.0477 22.0477 21.6 22.6 21.6H31.4C31.9523 21.6 32.4 21.1523 32.4 20.6V11.8C32.4 11.2477 31.9523 10.8 31.4 10.8H22.6C22.0477 10.8 21.6 10.3523 21.6 9.8V1Z" fill="#2E7D32"/>
</svg>
