<svg width="48" height="48" viewBox="0 0 48 48" fill="none" xmlns="http://www.w3.org/2000/svg">
<rect width="48" height="48" rx="10" fill="#1E1F26"/>
<path d="M9 10H35V10.0494C40.0533 10.5511 44 14.8147 44 20C44 25.5228 39.5228 30 34 30H29V36.0022C28.9988 38.7626 26.7607 41 24 41V30C24 27.2386 26.2386 25 29 25H33.5C35.9853 25 38 22.9853 38 20.5C38 18.0147 35.9853 16 33.5 16H23C20.2386 16 18 18.2386 18 21V41C15.2386 41 13 38.7614 13 36V16H4V15C4 12.2386 6.23858 10 9 10Z" fill="url(#paint0_linear)"/>
<defs>
<linearGradient id="paint0_linear" x1="17.5" y1="22.5" x2="24.5" y2="22.5" gradientUnits="userSpaceOnUse">
<stop stop-color="#FF5722"/>
<stop offset="1" stop-color="#F6EDE2"/>
</linearGradient>
</defs>
</svg>
