<svg width="31" height="30" viewBox="0 0 31 30" fill="none" xmlns="http://www.w3.org/2000/svg">
<path d="M30.6197 1.17663C30.8941 0.329463 30.368 -0.196725 29.5208 0.0777318L24.5359 1.68069C23.3364 2.06639 22.2946 2.69255 21.4545 3.53262L9.02762 15.9595L5.22012 12.152C4.91972 11.8516 4.50957 11.7747 4.30403 11.9802L2.81539 13.4689C2.60985 13.6744 2.68675 14.0846 2.98715 14.385L7.88251 19.2803L0.811439 26.3514C0.6059 26.5569 0.682803 26.9671 0.983206 27.2675L3.15892 29.4432C3.45932 29.7436 3.86947 29.8205 4.07501 29.615L11.1461 22.5439L16.0414 27.4393C16.3418 27.7397 16.752 27.8166 16.9575 27.611L18.4462 26.1224C18.6517 25.9168 18.5748 25.5067 18.2744 25.2063L14.4669 21.3988L27.0359 8.82981C27.783 8.08267 28.3615 7.17537 28.7518 6.13842L30.6197 1.17663Z" fill="#C62828"/>
</svg>
